# xmcd
#
# Track frame offsets:
#	150
#	19501
#	37995
#	52979
#	69993
#	83801
#	99128
#	118961
#	141949
#	164295
#	186445
#	200170
#
# Disc length: 2969 seconds
# Revision: 0
# Processed by: cddbd v1.5.2PL0 Copyright (c) Steve Scherf et al.
# Submitted via: dBpowerAMP V12.0
#
DISCID=9f0b970c
DTITLE=Jean Prescott - Traditions
DYEAR=2014
DGENRE=Country
TTITLE0=Smack Dab
TTITLE1=Ranch Mother
TTITLE2=Calving Time
TTITLE3=Legacy of Love
TTITLE4=Grandpa's Dream
TTITLE5=The Long Haul
TTITLE6=My Husband and I
TTITLE7=North Dakota Badlands
TTITLE8=Traditions
TTITLE9=West of the Moon
TTITLE10=Branding Day
TTITLE11=When We Get Together
EXTD=
EXTT0=
EXTT1=
EXTT2=
EXTT3=
EXTT4=
EXTT5=
EXTT6=
EXTT7=
EXTT8=
EXTT9=
EXTT10=
EXTT11=
PLAYORDER=
